<?xml version="1.0" encoding="UTF-8"?>
<svg id="Layer_1" data-name="Layer 1" xmlns="http://www.w3.org/2000/svg" viewBox="0 0 224.82 197.91">
  <defs>
    <style>
      .cls-1 {
        fill: #214fa3;
      }

      .cls-2 {
        fill: #fdc282;
      }
    </style>
  </defs>
  <path class="cls-2" d="M207.28,105.8v-20.87c0-37.16-30.12-67.29-67.28-67.29h-55.17c-37.16,0-67.28,30.12-67.28,67.29v20.87c-9.69,0-17.54,7.86-17.54,17.55s7.86,17.55,17.54,17.55c.25,0,.46-.13.7-.14,3.52,32.1,30.41,57.17,63.45,57.17h61.44c33.04,0,59.92-25.07,63.45-57.17.25,0,.45.14.7.14,9.69,0,17.54-7.86,17.54-17.55s-7.86-17.55-17.54-17.55Z"/>
  <g>
    <circle cx="63.65" cy="123.34" r="12.9"/>
    <circle cx="161.17" cy="123.34" r="12.9"/>
    <path d="M114.84,175.71c-9.13,0-17.32-6.11-19.91-14.85l5.31-1.57c1.91,6.41,7.91,10.87,14.6,10.87s12.7-4.46,14.61-10.87l5.31,1.57c-2.6,8.74-10.79,14.85-19.92,14.85Z"/>
  </g>
  <polygon class="cls-1" points="148.34 16.75 131.59 0 114.84 16.75 98.09 0 81.34 16.75 114.84 50.25 148.34 16.75"/>
</svg>