<?xml version="1.0" encoding="UTF-8"?>
<svg id="Layer_1" data-name="Layer 1" xmlns="http://www.w3.org/2000/svg" viewBox="0 0 155.91 124.62">
  <defs>
    <style>
      .cls-1 {
        fill: #f17996;
      }

      .cls-2 {
        fill: #1d8652;
      }
    </style>
  </defs>
  <polygon class="cls-2" points="31.29 155.77 52.06 135 62.44 145.39 72.83 135 93.6 155.77 103.98 145.39 72.83 114.23 62.44 103.85 20.9 145.39 31.29 155.77"/>
  <rect class="cls-2" x="55.1" y="3.04" width="14.69" height="14.69" transform="translate(10.95 47.19) rotate(-45)"/>
  <rect class="cls-2" x="55.1" y="23.81" width="14.69" height="14.69" transform="translate(-3.74 53.28) rotate(-45)"/>
  <polygon class="cls-2" points="93.6 31.15 72.83 51.92 62.44 41.54 52.06 51.92 31.29 31.15 20.9 41.54 52.06 72.69 62.44 83.08 103.98 41.54 93.6 31.15"/>
  <rect class="cls-1" x="138.18" y="86.12" width="14.69" height="14.69" transform="translate(-23.47 130.27) rotate(-45)"/>
  <rect class="cls-1" x="117.41" y="86.12" width="14.69" height="14.69" transform="translate(-29.55 115.59) rotate(-45)"/>
  <polygon class="cls-1" points="124.75 124.62 103.98 103.85 114.37 93.46 103.98 83.08 124.75 62.31 114.37 51.92 83.21 83.08 72.83 93.46 114.37 135 124.75 124.62"/>
  <rect class="cls-1" x="-7.21" y="86.12" width="14.69" height="14.69" transform="translate(-66.05 27.47) rotate(-45)"/>
  <polygon class="cls-1" points=".13 62.31 20.9 83.08 10.52 93.46 20.9 103.85 .13 124.62 10.52 135 41.67 103.85 52.06 93.46 10.52 51.92 .13 62.31"/>
  <rect class="cls-1" x="55.1" y="86.12" width="14.69" height="14.69" transform="translate(40.51 203.71) rotate(-135)"/>
</svg>