<?xml version="1.0" encoding="UTF-8"?>
<svg id="Layer_1" data-name="Layer 1" xmlns="http://www.w3.org/2000/svg" viewBox="0 0 708.98 738.19">
  <defs>
    <style>
      .cls-1 {
        fill: #e19826;
      }

      .cls-2 {
        fill: #ee3c42;
      }

      .cls-3 {
        fill: #f17996;
      }

      .cls-4 {
        fill: #6d954b;
      }

      .cls-5 {
        fill: #1f4fa1;
      }
    </style>
  </defs>
  <g>
    <polygon class="cls-3" points="620.68 679.08 650.23 649.52 620.68 619.97 650.23 590.41 620.68 560.86 591.12 590.41 561.57 619.97 591.12 649.52 620.68 679.08"/>
    <rect class="cls-3" x="511.11" y="658.18" width="41.8" height="41.8" transform="translate(-324.36 575.09) rotate(-45)"/>
    <rect class="cls-3" x="511.11" y="599.07" width="41.8" height="41.8" transform="translate(-282.56 557.77) rotate(-45)"/>
    <rect class="cls-3" x="511.11" y="539.96" width="41.8" height="41.8" transform="translate(-240.76 540.46) rotate(-45)"/>
    <rect class="cls-3" x="452" y="599.07" width="41.8" height="41.8" transform="translate(-299.87 515.97) rotate(-45)"/>
  </g>
  <g>
    <polygon class="cls-5" points="532.01 353.96 502.45 324.41 472.9 353.96 443.34 324.41 413.79 353.96 443.34 383.52 472.9 413.07 502.45 383.52 532.01 353.96"/>
    <rect class="cls-5" x="511.11" y="421.73" width="41.8" height="41.8" transform="translate(-157.17 505.83) rotate(-45)"/>
    <rect class="cls-5" x="452" y="421.73" width="41.8" height="41.8" transform="translate(-174.48 464.03) rotate(-45)"/>
    <rect class="cls-5" x="392.89" y="421.73" width="41.8" height="41.8" transform="translate(-191.79 422.23) rotate(-45)"/>
    <rect class="cls-5" x="452" y="480.84" width="41.8" height="41.8" transform="translate(-216.28 481.35) rotate(-45)"/>
  </g>
  <g>
    <rect class="cls-5" x="688.45" y="480.84" width="41.8" height="41.8" transform="translate(-147.02 648.54) rotate(-45)"/>
    <rect class="cls-5" x="688.45" y="421.73" width="41.8" height="41.8" transform="translate(-105.22 631.23) rotate(-45)"/>
    <rect class="cls-5" x="688.45" y="362.62" width="41.8" height="41.8" transform="translate(-63.43 613.91) rotate(-45)"/>
    <rect class="cls-5" x="629.33" y="421.73" width="41.8" height="41.8" transform="translate(-122.54 589.43) rotate(-45)"/>
  </g>
  <rect class="cls-4" x="570.22" y="185.28" width="41.8" height="41.8" transform="translate(1154.9 -66.01) rotate(135)"/>
  <rect class="cls-4" x="570.22" y="244.4" width="41.8" height="41.8" transform="translate(1196.7 34.9) rotate(135)"/>
  <rect class="cls-4" x="570.22" y="303.51" width="41.8" height="41.8" transform="translate(1238.5 135.81) rotate(135)"/>
  <rect class="cls-4" x="570.22" y="362.62" width="41.8" height="41.8" transform="translate(1280.3 236.72) rotate(135)"/>
  <g>
    <polygon class="cls-4" points="354.67 708.64 384.23 679.08 413.79 649.52 443.34 619.97 472.9 590.41 502.45 560.86 532.01 531.3 561.57 501.74 591.12 472.19 620.68 442.63 591.12 413.07 561.57 442.63 532.01 472.19 502.45 501.74 472.9 531.3 443.34 560.86 413.79 590.41 384.23 619.97 354.67 649.52 325.12 679.08 295.56 649.52 266 619.97 236.45 590.41 206.89 619.97 236.45 649.52 266 679.08 295.56 708.64 325.12 738.19 354.67 708.64"/>
    <polygon class="cls-4" points="295.56 531.3 266 501.74 236.45 531.3 206.89 560.86 236.45 590.41 266 560.86 295.56 531.3"/>
    <rect class="cls-4" x="304.22" y="569.51" width="41.8" height="41.8" transform="translate(-322.26 402.82) rotate(-45)"/>
    <rect class="cls-4" x="304.22" y="510.4" width="41.8" height="41.8" transform="translate(-280.46 385.51) rotate(-45)"/>
  </g>
  <polygon class="cls-1" points="768.46 -.71 798.01 -30.27 768.46 -59.82 738.9 -89.38 709.35 -59.82 679.79 -30.27 709.35 -.71 738.9 28.85 768.46 -.71"/>
  <polygon class="cls-1" points="768.46 294.85 798.01 265.29 768.46 235.74 738.9 206.18 709.35 235.74 679.79 265.29 709.35 294.85 738.9 324.41 768.46 294.85"/>
  <polygon class="cls-3" points="384.23 383.52 413.79 353.96 384.23 324.41 354.67 294.85 325.12 324.41 295.56 353.96 325.12 383.52 354.67 413.07 384.23 383.52"/>
  <polygon class="cls-1" points="472.9 294.85 502.45 265.29 472.9 235.74 443.34 206.18 413.79 235.74 384.23 265.29 413.79 294.85 443.34 324.41 472.9 294.85"/>
  <polygon class="cls-1" points="472.9 -.71 502.45 -30.27 472.9 -59.82 443.34 -89.38 413.79 -59.82 384.23 -30.27 413.79 -.71 443.34 28.85 472.9 -.71"/>
  <polygon class="cls-4" points="620.68 28.85 650.23 -.71 620.68 -30.27 591.12 -59.82 561.57 -30.27 532.01 -.71 561.57 28.85 591.12 58.4 620.68 28.85"/>
  <polygon class="cls-4" points="620.68 147.07 650.23 117.51 620.68 87.96 591.12 58.4 561.57 87.96 532.01 117.51 561.57 147.07 591.12 176.63 620.68 147.07"/>
  <polygon class="cls-4" points="738.9 147.07 768.46 117.51 738.9 87.96 709.35 58.4 679.79 87.96 650.23 117.51 679.79 147.07 709.35 176.63 738.9 147.07"/>
  <polygon class="cls-4" points="502.45 147.07 532.01 117.51 502.45 87.96 472.9 58.4 443.34 87.96 413.79 117.51 443.34 147.07 472.9 176.63 502.45 147.07"/>
  <g>
    <rect class="cls-2" x="8.66" y="96.62" width="41.8" height="41.8" transform="translate(-74.44 55.32) rotate(-45)"/>
    <polygon class="cls-2" points="118.22 58.4 88.67 28.85 59.11 58.4 88.67 87.96 59.11 117.51 88.67 147.07 59.11 176.63 88.67 206.18 118.22 176.63 147.78 147.07 177.34 117.51 147.78 87.96 118.22 58.4"/>
    <polygon class="cls-2" points="206.89 206.18 236.45 176.63 266.01 147.07 295.56 117.51 266 87.96 236.45 58.4 206.89 28.85 177.34 -.71 147.78 -30.27 118.22 -.71 147.78 28.85 177.34 58.4 206.89 87.96 177.34 117.51 206.89 147.07 177.34 176.63 147.78 206.18 118.22 235.74 147.78 265.29 177.34 235.74 206.89 206.18"/>
    <polygon class="cls-2" points="295.56 -59.82 266 -89.38 236.45 -59.82 206.89 -89.38 177.34 -59.82 206.89 -30.27 236.45 -.71 266 28.85 295.56 58.4 325.12 87.96 354.67 117.51 325.12 147.07 295.56 176.63 266 206.18 236.45 235.74 206.89 265.29 177.34 294.85 206.89 324.41 236.45 294.85 266 324.41 295.56 294.85 266.01 265.29 295.56 235.74 325.12 265.29 354.67 235.74 325.12 206.18 354.67 176.63 384.23 206.18 413.79 176.63 384.23 147.07 413.79 117.51 384.23 87.96 413.79 58.4 384.23 28.85 354.67 58.4 325.12 28.85 354.67 -.71 325.12 -30.27 295.56 -.71 266 -30.27 295.56 -59.82"/>
  </g>
</svg>