<?xml version="1.0" encoding="UTF-8"?>
<svg id="Layer_1" data-name="Layer 1" xmlns="http://www.w3.org/2000/svg" viewBox="0 0 909.51 802.53">
  <defs>
    <style>
      .cls-1 {
        fill: #e19826;
      }

      .cls-2, .cls-3 {
        fill: #fff;
      }

      .cls-2, .cls-4 {
        opacity: .35;
      }

      .cls-5 {
        fill: #ee3c42;
      }

      .cls-6 {
        fill: #f17996;
      }
    </style>
  </defs>
  <rect class="cls-2" x="138.25" y="784.17" width="36.81" height="36.81" transform="translate(834.93 1259.31) rotate(135)"/>
  <polygon class="cls-1" points="312.82 620.38 338.84 594.35 312.82 568.32 286.79 542.3 260.76 568.32 234.73 594.35 260.76 620.38 286.79 646.41 312.82 620.38"/>
  <polygon class="cls-6" points="390.9 542.3 416.93 516.27 390.9 490.24 364.87 464.21 338.84 490.24 312.82 516.27 338.84 542.3 364.87 568.32 390.9 542.3"/>
  <polygon class="cls-6" points="-25.54 542.3 .49 516.27 -25.54 490.24 -51.57 464.21 -77.6 490.24 -103.62 516.27 -77.6 542.3 -51.57 568.32 -25.54 542.3"/>
  <polygon class="cls-1" points="52.54 620.38 78.57 594.35 52.54 568.32 26.51 542.3 .49 568.32 -25.54 594.35 .49 620.38 26.51 646.41 52.54 620.38"/>
  <polygon class="cls-2" points="182.68 646.41 208.71 620.38 182.68 594.35 156.65 568.32 130.62 594.35 104.6 620.38 130.62 646.41 156.65 672.43 182.68 646.41"/>
  <polygon class="cls-2" points="182.68 750.52 208.71 724.49 182.68 698.46 156.65 672.43 130.62 698.46 104.6 724.49 130.62 750.52 156.65 776.54 182.68 750.52"/>
  <polygon class="cls-2" points="286.79 750.52 312.82 724.49 286.79 698.46 260.76 672.43 234.73 698.46 208.71 724.49 234.73 750.52 260.76 776.54 286.79 750.52"/>
  <polygon class="cls-2" points="78.57 750.52 104.6 724.49 78.57 698.46 52.54 672.43 26.51 698.46 .49 724.49 26.51 750.52 52.54 776.54 78.57 750.52"/>
  <g>
    <rect class="cls-5" x="632.77" y="706.09" width="36.81" height="36.81" transform="translate(-321.57 672.65) rotate(-45)"/>
    <polygon class="cls-5" points="573.09 776.54 599.12 802.57 625.15 776.54 599.12 750.52 625.15 724.49 599.12 698.46 625.15 672.43 599.12 646.41 573.09 672.43 547.07 698.46 521.04 724.49 547.07 750.52 573.09 776.54"/>
    <polygon class="cls-5" points="495.01 646.41 468.98 672.43 442.95 698.46 416.93 724.49 442.95 750.52 468.98 776.54 495.01 802.57 521.04 828.6 547.07 854.63 573.09 828.6 547.07 802.57 521.04 776.54 495.01 750.52 521.04 724.49 495.01 698.46 521.04 672.43 547.07 646.41 573.09 620.38 547.07 594.35 521.04 620.38 495.01 646.41"/>
    <polygon class="cls-5" points="416.93 880.66 442.95 906.68 468.98 880.66 495.01 906.68 521.04 880.66 495.01 854.63 468.98 828.6 442.95 802.57 416.93 776.54 390.9 750.52 364.87 724.49 390.9 698.46 416.93 672.43 442.95 646.41 468.98 620.38 495.01 594.35 521.04 568.32 495.01 542.3 468.98 568.32 442.95 542.3 416.93 568.32 442.95 594.35 416.93 620.38 390.9 594.35 364.87 620.38 390.9 646.41 364.87 672.43 338.84 646.41 312.82 672.43 338.84 698.46 312.82 724.49 338.84 750.52 312.82 776.54 338.84 802.57 364.87 776.54 390.9 802.57 364.87 828.6 390.9 854.63 416.93 828.6 442.95 854.63 416.93 880.66"/>
  </g>
  <g class="cls-4">
    <rect class="cls-3" x="138.25" y="211.56" width="36.81" height="36.81" transform="translate(-116.73 178.12) rotate(-45)"/>
    <polygon class="cls-3" points="208.71 308.05 234.73 282.02 208.71 255.99 182.68 282.02 156.65 255.99 130.62 282.02 104.6 255.99 78.57 282.02 104.6 308.05 130.62 334.08 156.65 360.1 182.68 334.08 208.71 308.05"/>
    <polygon class="cls-3" points="78.57 386.13 104.6 412.16 130.62 438.19 156.65 464.21 182.68 438.19 208.71 412.16 234.73 386.13 260.76 360.1 286.79 334.08 260.76 308.05 234.73 334.08 208.71 360.1 182.68 386.13 156.65 360.1 130.62 386.13 104.6 360.1 78.57 334.08 52.54 308.05 26.51 334.08 52.54 360.1 78.57 386.13"/>
    <polygon class="cls-3" points="312.82 464.21 338.84 438.19 312.82 412.16 338.84 386.13 312.82 360.1 286.79 386.13 260.76 412.16 234.73 438.19 208.71 464.21 182.68 490.24 156.65 516.27 130.62 490.24 104.6 464.21 78.57 438.19 52.54 412.16 26.51 386.13 .49 360.1 -25.54 386.13 .49 412.16 -25.54 438.19 .49 464.21 26.51 438.19 52.54 464.21 26.51 490.24 52.54 516.27 78.57 490.24 104.6 516.27 78.57 542.3 104.6 568.32 130.62 542.3 156.65 568.32 182.68 542.3 208.71 568.32 234.73 542.3 208.71 516.27 234.73 490.24 260.76 516.27 286.79 490.24 260.76 464.21 286.79 438.19 312.82 464.21"/>
  </g>
  <polygon class="cls-5" points="-103.62 568.32 -129.65 542.3 -155.68 568.32 -181.71 542.3 -207.73 568.32 -181.71 594.35 -155.68 620.38 -129.65 646.41 -103.62 672.43 -77.6 698.46 -51.57 724.49 -77.6 750.52 -103.62 776.54 -129.65 802.57 -155.68 828.6 -181.71 854.63 -207.73 880.66 -181.71 906.68 -155.68 880.66 -129.65 906.68 -103.62 880.65 -129.65 854.63 -103.62 828.6 -77.6 854.63 -51.57 828.6 -77.6 802.57 -51.57 776.54 -25.54 802.57 .49 776.54 -25.54 750.52 .49 724.49 -25.54 698.46 .49 672.43 -25.54 646.41 -51.57 672.43 -77.6 646.41 -51.57 620.38 -77.6 594.35 -103.62 620.38 -129.65 594.35 -103.62 568.32"/>
</svg>