<?xml version="1.0" encoding="UTF-8"?>
<svg id="Layer_1" data-name="Layer 1" xmlns="http://www.w3.org/2000/svg" viewBox="0 0 403.27 355">
  <defs>
    <style>
      .cls-1 {
        fill: #fdc282;
      }

      .cls-2 {
        fill: #f27a97;
      }
    </style>
  </defs>
  <path class="cls-1" d="M371.8,189.77v-37.44c0-66.65-54.03-120.69-120.69-120.69h-98.95c-66.65,0-120.69,54.03-120.69,120.69v37.44c-17.38,0-31.47,14.09-31.47,31.47s14.09,31.47,31.47,31.47c.45,0,.82-.24,1.26-.25,6.32,57.58,54.54,102.54,113.8,102.54h110.2c59.26,0,107.48-44.96,113.8-102.54.44.02.81.25,1.26.25,17.38,0,31.47-14.09,31.47-31.47s-14.09-31.47-31.47-31.47Z"/>
  <path d="M205.98,315.18c-16.37,0-31.06-10.96-35.72-26.66l9.52-2.82c3.42,11.49,14.18,19.53,26.19,19.53s22.79-8.03,26.2-19.53l9.52,2.82c-4.66,15.7-19.35,26.66-35.73,26.66Z"/>
  <polygon class="cls-2" points="266.08 30.05 236.03 0 205.99 30.05 175.94 0 145.89 30.05 205.99 90.14 266.08 30.05"/>
  <path d="M330.21,203.92l-6.32-3.42c-3.03,5.64-8.6,9.03-14.53,9.54-.24-.43-.49-.84-.75-1.25.18-.11.36-.2.54-.31,5.76-3.62,9.77-9.25,11.28-15.88l-6.99-1.6c-1.09,4.75-3.97,8.8-8.09,11.39-.53.33-1.07.63-1.62.91-3.99-3.25-9.07-5.2-14.62-5.2-12.78,0-23.14,10.36-23.14,23.14s10.36,23.14,23.14,23.14,23.14-10.36,23.14-23.14c0-1.47-.14-2.91-.41-4.3,7.55-1.22,14.47-5.79,18.37-13.01Z"/>
  <path d="M122.88,198.1c-5.55,0-10.63,1.95-14.62,5.21-.55-.27-1.09-.58-1.62-.91-4.13-2.59-7.01-6.64-8.09-11.39l-6.99,1.6c1.51,6.63,5.52,12.26,11.28,15.88.18.11.36.21.54.31-.26.41-.51.83-.75,1.25-5.93-.51-11.5-3.9-14.53-9.54l-6.32,3.42c3.9,7.22,10.83,11.79,18.37,13.01-.26,1.4-.41,2.83-.41,4.3,0,12.78,10.36,23.14,23.14,23.14s23.14-10.36,23.14-23.14-10.36-23.14-23.14-23.14Z"/>
</svg>