<svg preserveAspectRatio="none" width="100%" height="100%" overflow="visible" style="display: block;" viewBox="0 0 70 70.2446" fill="none" xmlns="http://www.w3.org/2000/svg">
<g id="Group 8">
<path id="Vector" d="M70 17.5712L70 3.47055e-06L52.5368 0L52.5368 17.5712L70 17.5712Z" fill="var(--fill-0, #F27A97)"/>
<path id="Vector_2" d="M52.5383 35.1426L52.5383 17.5713L35.0751 17.5713L35.0751 35.1425L52.5383 35.1426Z" fill="var(--fill-0, #F27A97)"/>
<g id="Group 10">
<path id="Vector_3" d="M55.6704 0.656883L55.6704 14.5317L69.5346 14.5317L69.5346 0.656885L55.6704 0.656883Z" fill="var(--fill-0, #E38098)"/>
<path id="Vector_4" d="M55.6701 42.3882L69.5344 42.3882L69.5344 28.5133L55.6701 28.5133L55.6701 14.5318L41.6993 14.5318L41.6993 0.656904L27.835 0.656902L27.835 14.5317L27.835 28.5133L27.835 42.3882L41.6993 42.3882L55.6701 42.3882Z" fill="var(--fill-0, #E38098)"/>
<path id="Vector_5" d="M4.9764e-07 28.5133L3.32184e-07 42.3882L1.65456e-07 56.3697L0 70.2446L13.8643 70.2446L27.8352 70.2446L41.6994 70.2446L55.6703 70.2446L69.5346 70.2446L69.5346 56.3697L55.6703 56.3697L41.6994 56.3697L27.8352 56.3697L27.8352 42.3882L13.8643 42.3882L13.8643 28.5133L13.8643 14.5317L13.8643 0.656904L8.29825e-07 0.656901L6.64369e-07 14.5317L4.9764e-07 28.5133Z" fill="var(--fill-0, #E38098)"/>
</g>
</g>
</svg>
