<svg preserveAspectRatio="xMinYMid meet" width="246" height="29" overflow="visible" style="display: block;" viewBox="0 0 246 28.5047" fill="none" xmlns="http://www.w3.org/2000/svg">
<g id="Group">
<path id="Vector" d="M23.2658 11.1912C23.2658 17.3793 19.1253 22.2508 12.8159 22.2508C10.7128 22.2508 8.74112 21.6583 7.09805 20.5392V28.5047H0V0.592477H5.98076L6.24365 2.50157C8.01817 1.05329 10.3185 0.197492 12.8159 0.197492C18.9281 0.197492 23.2658 4.80564 23.2658 11.2571V11.1912ZM16.2335 11.1912C16.2335 8.49216 14.3275 6.51724 11.6329 6.51724C8.93828 6.51724 7.03233 8.42633 7.03233 11.1912C7.03233 13.9561 8.93828 15.8652 11.6329 15.8652C14.3275 15.8652 16.2335 13.9561 16.2335 11.1912Z" fill="var(--fill-0, white)"/>
<path id="Vector_2" d="M44.0999 0.592477H50.0807V21.8558H44.0999L43.7713 19.9467C41.9968 21.4608 39.7622 22.2508 37.2648 22.2508C30.9554 22.2508 26.7491 17.511 26.7491 11.1912C26.7491 4.87147 31.2183 0.131661 37.2648 0.131661C39.8279 0.131661 42.1282 0.987461 43.837 2.50157L44.0999 0.592477ZM42.9826 11.1912C42.9826 8.49216 41.0767 6.51724 38.382 6.51724C35.6874 6.51724 33.7815 8.42633 33.7815 11.1912C33.7815 13.9561 35.6874 15.8652 38.382 15.8652C41.0767 15.8652 42.9826 13.9561 42.9826 11.1912Z" fill="var(--fill-0, white)"/>
<path id="Vector_3" d="M54.747 11.1912C54.747 4.67398 59.479 0.0658307 66.1827 0.0658307C72.1635 0.0658307 76.5669 3.81818 77.2899 9.34796H70.4547C69.7975 7.63636 68.1544 6.51724 66.2485 6.51724C63.5538 6.51724 61.7793 8.42633 61.7793 11.1912C61.7793 13.9561 63.5538 15.8652 66.2485 15.8652C68.2201 15.8652 69.7318 14.7461 70.4547 13.0345H77.2899C76.5012 18.5643 72.0978 22.3166 66.117 22.3166C59.4133 22.3166 54.6813 17.6426 54.6813 11.1912H54.747Z" fill="var(--fill-0, white)"/>
<path id="Vector_4" d="M100.687 0.592477V7.04389H93.9177V21.8558H86.8197V7.04389H80.0502V0.592477H100.687Z" fill="var(--fill-0, white)"/>
<path id="Vector_5" d="M110.48 13.232C111.071 15.2069 112.649 16.2602 114.949 16.2602C116.329 16.2602 117.644 15.7335 118.367 15.0094H125.662C124.15 19.4859 119.944 22.2508 114.883 22.2508C108.311 22.2508 103.447 17.5768 103.447 11.1254C103.447 4.67398 108.245 0 114.883 0C122.31 0 127.239 5.66144 126.056 13.1661H110.48V13.232ZM119.484 9.15047C118.958 7.24138 117.381 6.05643 115.015 6.05643C112.649 6.05643 111.203 7.24138 110.546 9.15047H119.484Z" fill="var(--fill-0, white)"/>
<path id="Vector_6" d="M186.455 0.592477H193.553V21.8558H186.455V14.4169H180.212V21.8558H173.179V0.592477H180.212V7.63636H186.455V0.592477Z" fill="var(--fill-0, white)"/>
<path id="Vector_7" d="M214.256 0.592477H219.842V21.8558H212.81V15.9969L212.941 11.8495L205.252 21.8558H199.665V0.592477H206.698V6.45141L206.566 10.5329L214.322 0.526646L214.256 0.592477Z" fill="var(--fill-0, white)"/>
<path id="Vector_8" d="M239.099 10.7962L246 21.1317V21.79H237.982L232.987 13.7586V21.79H225.889V0.592477H232.987V8.3605L237.653 0.592477H245.408V1.25078L239.099 10.7962Z" fill="var(--fill-0, white)"/>
</g>
</svg>
