<svg preserveAspectRatio="xMidYMid meet" width="32" height="33" overflow="visible" style="display: block;" viewBox="0 0 32.342 33.0517" fill="none" xmlns="http://www.w3.org/2000/svg">
<g id="Group">
<path id="Vector" d="M32.342 31.5517V33.0517H26.4333V30.9828C26.4333 26.3793 23.3754 22.4483 19.1253 21.2069V33.0517H13.2167V21.2069C9.01844 22.4483 5.90864 26.3793 5.90864 30.9828V33.0517H0V31.5517C0 31.5517 0 31.3448 0 31.2414C0 31.1379 0 31.0862 0 30.9828C0 28.0345 0.881115 25.2931 2.33236 22.9138C3.2653 21.3621 4.50922 19.9655 5.90864 18.8276C7.61903 17.431 9.6404 16.3448 11.8691 15.7759C10.5733 13.4483 8.44831 11.6379 5.90864 10.7586C4.76837 10.3966 3.57628 10.1379 2.33236 10.1379V3.8276C3.57628 3.93105 4.76837 4.18967 5.90864 4.60346C10.7807 6.25863 14.5643 10.1897 16.0673 15.1552H16.2747C17.7259 10.2414 21.5613 6.25863 26.4333 4.60346C27.5218 4.24139 28.662 3.98277 29.8023 3.8276V10.0862C28.6102 10.0862 27.4699 10.2931 26.4333 10.6552C23.8937 11.5345 21.7686 13.3448 20.4729 15.6724C22.7016 16.2931 24.723 17.3276 26.4333 18.7241C27.7809 19.8104 28.9212 21.1035 29.8023 22.5517C31.3572 24.9828 32.2383 27.8276 32.2901 30.8793C32.2901 30.9828 32.2901 31.0345 32.2901 31.1379C32.2901 31.2414 32.2901 31.3448 32.2901 31.4483L32.342 31.5517Z" fill="var(--fill-0, #E9B063)"/>
<path id="Vector_2" d="M21.665 2.74138L18.918 0L16.2228 2.74138L13.4758 0L10.7288 2.74138L16.2228 8.22414L21.665 2.74138Z" fill="var(--fill-0, #E38098)"/>
</g>
</svg>
