<svg preserveAspectRatio="xMinYMid meet" width="194" height="22" overflow="visible" style="display: block;" viewBox="0 0 194 22.3966" fill="none" xmlns="http://www.w3.org/2000/svg">
<g id="Group">
<path id="Vector" d="M18.3478 8.7931C18.3478 13.6552 15.0826 17.4828 10.1069 17.4828C8.4483 17.4828 6.8934 17.0172 5.59765 16.1379V22.3966H0V0.465517H4.71654L4.92386 1.96552C6.32327 0.827586 8.13732 0.155172 10.1069 0.155172C14.9271 0.155172 18.3478 3.77586 18.3478 8.84483V8.7931ZM12.802 8.7931C12.802 6.67241 11.299 5.12069 9.17392 5.12069C7.04889 5.12069 5.54582 6.62069 5.54582 8.7931C5.54582 10.9655 7.04889 12.4655 9.17392 12.4655C11.299 12.4655 12.802 10.9655 12.802 8.7931Z" fill="var(--fill-0, white)"/>
<path id="Vector_2" d="M34.778 0.465517H39.4945V17.1724H34.778L34.5188 15.6724C33.1194 16.8621 31.3572 17.4828 29.3877 17.4828C24.412 17.4828 21.0948 13.7586 21.0948 8.7931C21.0948 3.82759 24.6193 0.103448 29.3877 0.103448C31.409 0.103448 33.2231 0.775862 34.5707 1.96552L34.778 0.465517ZM33.8969 8.7931C33.8969 6.67241 32.3938 5.12069 30.2688 5.12069C28.1437 5.12069 26.6407 6.62069 26.6407 8.7931C26.6407 10.9655 28.1437 12.4655 30.2688 12.4655C32.3938 12.4655 33.8969 10.9655 33.8969 8.7931Z" fill="var(--fill-0, white)"/>
<path id="Vector_3" d="M43.1745 8.7931C43.1745 3.67241 46.9062 0.0517242 52.1929 0.0517242C56.9094 0.0517242 60.382 3 60.9522 7.34483H55.5618C55.0435 6 53.7478 5.12069 52.2447 5.12069C50.1197 5.12069 48.7203 6.62069 48.7203 8.7931C48.7203 10.9655 50.1197 12.4655 52.2447 12.4655C53.7996 12.4655 54.9917 11.5862 55.5618 10.2414H60.9522C60.3302 14.5862 56.8576 17.5345 52.1411 17.5345C46.8544 17.5345 43.1226 13.8621 43.1226 8.7931H43.1745Z" fill="var(--fill-0, white)"/>
<path id="Vector_4" d="M79.4037 0.465517V5.53448H74.0652V17.1724H68.4675V5.53448H63.129V0.465517H79.4037Z" fill="var(--fill-0, white)"/>
<path id="Vector_5" d="M87.1264 10.3966C87.5928 11.9483 88.8368 12.7759 90.6508 12.7759C91.7392 12.7759 92.7758 12.3621 93.346 11.7931H99.0991C97.907 15.3103 94.5899 17.4828 90.599 17.4828C85.416 17.4828 81.5805 13.8103 81.5805 8.74138C81.5805 3.67241 85.3641 7.95072e-08 90.599 7.95072e-08C96.4558 7.95072e-08 100.343 4.44828 99.4101 10.3448H87.1264V10.3966ZM94.2271 7.18966C93.8124 5.68966 92.5685 4.75862 90.7026 4.75862C88.8368 4.75862 87.6965 5.68966 87.1782 7.18966H94.2271Z" fill="var(--fill-0, white)"/>
<path id="Vector_6" d="M147.042 0.465517H152.64V17.1724H147.042V11.3276H142.118V17.1724H136.572V0.465517H142.118V6H147.042V0.465517Z" fill="var(--fill-0, white)"/>
<path id="Vector_7" d="M168.966 0.465518H173.372V17.1724H167.826V12.569L167.929 9.31035L161.865 17.1724H157.46V0.465518H163.006V5.06897L162.902 8.27586L169.018 0.413793L168.966 0.465518Z" fill="var(--fill-0, white)"/>
<path id="Vector_8" d="M188.558 8.48276L194 16.6034V17.1207H187.677L183.738 10.8103V17.1207H178.14V0.465517H183.738V6.56897L187.418 0.465517H193.534V0.982758L188.558 8.48276Z" fill="var(--fill-0, white)"/>
</g>
</svg>
