<svg preserveAspectRatio="xMidYMid meet" width="41" height="42" overflow="visible" style="display: block;" viewBox="0 0 41.011 42.0658" fill="none" xmlns="http://www.w3.org/2000/svg">
<g id="Group">
<path id="Vector" d="M41.011 40.1568V42.0658H33.5186V39.4326C33.5186 33.5737 29.6409 28.5705 24.2517 26.9906V42.0658H16.7593V26.9906C11.4358 28.5705 7.49239 33.5737 7.49239 39.4326V42.0658H2.37865e-08V40.1568C2.37865e-08 40.1568 2.37865e-08 39.8934 2.37865e-08 39.7618C2.37865e-08 39.6301 2.37865e-08 39.5643 2.37865e-08 39.4326C2.37865e-08 35.6803 1.11729 32.1912 2.95753 29.163C4.14053 27.1881 5.71788 25.4107 7.49239 23.9624C9.66124 22.185 12.2244 20.8025 15.0505 20.0784C13.4074 17.116 10.7128 14.8119 7.49239 13.6928C6.0465 13.232 4.53487 12.9028 2.95753 12.9028V4.87149C4.53487 5.00315 6.0465 5.33231 7.49239 5.85895C13.6703 7.96553 18.4681 12.9687 20.374 19.2884H20.6369C22.4772 13.0345 27.3406 7.96553 33.5186 5.85895C34.8987 5.39814 36.3446 5.06898 37.7905 4.87149V12.837C36.2789 12.837 34.833 13.1003 33.5186 13.5611C30.2982 14.6803 27.6035 16.9843 25.9605 19.9467C28.7865 20.7367 31.3497 22.0533 33.5186 23.8307C35.2274 25.2132 36.6733 26.859 37.7905 28.7022C39.7622 31.7963 40.8795 35.4169 40.9452 39.301C40.9452 39.4326 40.9452 39.4984 40.9452 39.6301C40.9452 39.7618 40.9452 39.8934 40.9452 40.0251L41.011 40.1568Z" fill="var(--fill-0, #E9B063)"/>
<path id="Vector_2" d="M27.4721 3.48903L23.9888 0L20.5712 3.48903L17.0879 0L13.6046 3.48903L20.5712 10.4671L27.4721 3.48903Z" fill="var(--fill-0, #E38098)"/>
</g>
</svg>
