<svg preserveAspectRatio="none" width="100%" height="100%" overflow="visible" style="display: block;" viewBox="0 0 146.607 147.514" fill="none" xmlns="http://www.w3.org/2000/svg">
<g id="Group 10">
<path id="Vector" d="M146.607 147.228L146.607 130.965L130.443 130.965L130.443 147.228L146.607 147.228Z" fill="var(--fill-0, #E9B063)"/>
<path id="Vector_2" d="M130.443 130.965L130.443 114.701L114.28 114.701L114.28 130.965L130.443 130.965Z" fill="var(--fill-0, #E9B063)"/>
<path id="Vector_3" d="M97.8323 147.514L97.8323 114.701L113.996 114.701L113.996 98.1523L146.607 98.1523L146.607 81.8887L97.8323 81.8887L81.3852 81.8887L81.3852 147.514L97.8323 147.514Z" fill="var(--fill-0, #E9B063)"/>
<path id="Vector_4" d="M16.4472 16.2637L16.4472 0.00010522L0.283626 0.000104514L0.283625 16.2637L16.4472 16.2637Z" fill="var(--fill-0, #E9B063)"/>
<path id="Vector_5" d="M32.6107 32.5273L32.6107 16.2637L16.4471 16.2637L16.4471 32.5273L32.6107 32.5273Z" fill="var(--fill-0, #E9B063)"/>
<path id="Vector_6" d="M49.0579 0.000104514L49.0579 32.8126L32.6108 32.8126L32.6108 49.0762L1.60892e-06 49.0762L8.85548e-07 65.6252L49.0579 65.6252L65.2215 65.6252L65.2215 0.00010522L49.0579 0.000104514Z" fill="var(--fill-0, #E9B063)"/>
<path id="Vector_7" d="M146.607 16.2637L146.607 0.00010522L130.443 0.000104514L130.443 16.2637L146.607 16.2637Z" fill="var(--fill-0, #476ABF)"/>
<path id="Vector_8" d="M130.443 32.5273L130.443 16.2637L114.28 16.2637L114.28 32.5273L130.443 32.5273Z" fill="var(--fill-0, #476ABF)"/>
<path id="Vector_9" d="M146.607 49.0762L113.996 49.0762L113.996 32.8126L97.8324 32.8126L97.8324 0.000103088L81.3852 0.000102369L81.3852 49.0762L81.3852 65.6252L146.607 65.6252L146.607 49.0762Z" fill="var(--fill-0, #476ABF)"/>
<path id="Vector_10" d="M16.4472 147.228L16.4472 130.965L0.283626 130.965L0.283625 147.228L16.4472 147.228Z" fill="var(--fill-0, #476ABF)"/>
<path id="Vector_11" d="M32.6107 130.965L32.6107 114.701L16.4471 114.701L16.4471 130.965L32.6107 130.965Z" fill="var(--fill-0, #476ABF)"/>
<path id="Vector_12" d="M3.04321e-06 98.1523L32.6108 98.1523L32.6108 114.701L49.0579 114.701L49.0579 147.514L65.2215 147.514L65.2215 98.1523L65.2215 81.8887L3.75411e-06 81.8887L3.04321e-06 98.1523Z" fill="var(--fill-0, #476ABF)"/>
<path id="Vector_13" d="M65.2215 81.889L81.3851 81.889L81.3851 65.6254L65.2215 65.6254L65.2215 81.889Z" fill="var(--fill-0, #476ABF)"/>
</g>
</svg>
