<svg preserveAspectRatio="none" width="100%" height="100%" overflow="visible" style="display: block;" viewBox="0 0 755.174 750.529" fill="none" xmlns="http://www.w3.org/2000/svg">
<g id="Group 1" opacity="0.15">
<path id="Vector" d="M753.713 0.000453861H670.454V82.7475H753.713V0.000453861Z" fill="var(--fill-0, #1F4223)"/>
<path id="Vector_2" d="M670.454 82.7443H587.195V165.491H670.454V82.7443Z" fill="var(--fill-0, #1F4223)"/>
<path id="Vector_3" d="M755.174 249.693H587.195V166.946H502.475V4.31584e-05H419.216V249.693V333.891H755.174V249.693Z" fill="var(--fill-0, #1F4223)"/>
<path id="Vector_4" d="M83.2594 666.331H0.000410703V749.078H83.2594V666.331Z" fill="var(--fill-0, #1F4223)"/>
<path id="Vector_5" d="M166.517 583.582H83.2581V666.329H166.517V583.582Z" fill="var(--fill-0, #1F4223)"/>
<path id="Vector_6" d="M0 499.384H167.979V583.583H251.238V750.529H335.957V499.384V416.637H0V499.384Z" fill="var(--fill-0, #1F4223)"/>
<path id="Vector_7" d="M83.2594 4.31584e-05H0.000410703V82.747H83.2594V4.31584e-05Z" fill="var(--fill-0, #1F4223)"/>
<path id="Vector_8" d="M166.518 82.7443H83.2589V165.491H166.518V82.7443Z" fill="var(--fill-0, #1F4223)"/>
<path id="Vector_9" d="M251.238 4.31584e-05V166.946H167.979V249.693H0.000410703V333.891H251.238H335.958V4.31584e-05H251.238Z" fill="var(--fill-0, #1F4223)"/>
<path id="Vector_10" d="M753.712 666.33H670.453V749.077H753.712V666.33Z" fill="var(--fill-0, #1F4223)"/>
<path id="Vector_11" d="M670.452 583.583H587.193V666.33H670.452V583.583Z" fill="var(--fill-0, #1F4223)"/>
<path id="Vector_12" d="M502.475 750.528V583.582H587.195V499.384H755.174V416.637H502.475H419.216V750.528H502.475Z" fill="var(--fill-0, #1F4223)"/>
<path id="Vector_13" d="M419.217 416.638V333.891H335.958V416.638H419.217Z" fill="var(--fill-0, #1F4223)"/>
</g>
</svg>
