<svg preserveAspectRatio="none" width="100%" height="100%" overflow="visible" style="display: block;" viewBox="0 0 146.607 147.514" fill="none" xmlns="http://www.w3.org/2000/svg">
<g id="Group 9">
<path id="Vector" d="M146.607 147.228L146.607 130.965L130.443 130.965L130.443 147.228L146.607 147.228Z" fill="var(--fill-0, #1F8652)"/>
<path id="Vector_2" d="M130.443 130.965L130.443 114.701L114.28 114.701L114.28 130.965L130.443 130.965Z" fill="var(--fill-0, #1F8652)"/>
<path id="Vector_3" d="M97.8324 147.514L97.8324 114.701L113.996 114.701L113.996 98.1522L146.607 98.1522L146.607 81.8886L97.8324 81.8886L81.3852 81.8886L81.3852 147.514L97.8324 147.514Z" fill="var(--fill-0, #1F8652)"/>
<path id="Vector_4" d="M16.4472 16.2636L16.4472 2.85092e-06L0.283616 2.14439e-06L0.283615 16.2636L16.4472 16.2636Z" fill="var(--fill-0, #1F8652)"/>
<path id="Vector_5" d="M32.6106 32.5274L32.6106 16.2638L16.447 16.2638L16.447 32.5274L32.6106 32.5274Z" fill="var(--fill-0, #1F8652)"/>
<path id="Vector_6" d="M49.0579 2.14439e-06L49.0579 32.8125L32.6108 32.8125L32.6108 49.0761L1.60892e-06 49.0761L8.85548e-07 65.6251L49.0579 65.6251L65.2215 65.6251L65.2215 2.85092e-06L49.0579 2.14439e-06Z" fill="var(--fill-0, #1F8652)"/>
<path id="Vector_7" d="M146.607 16.2636L146.607 2.85092e-06L130.443 2.14439e-06L130.443 16.2636L146.607 16.2636Z" fill="var(--fill-0, #F27A97)"/>
<path id="Vector_8" d="M130.443 32.5274L130.443 16.2638L114.28 16.2638L114.28 32.5274L130.443 32.5274Z" fill="var(--fill-0, #F27A97)"/>
<path id="Vector_9" d="M146.607 49.0761L113.996 49.0761L113.996 32.8125L97.8324 32.8125L97.8324 7.18928e-07L81.3852 0L81.3852 49.0761L81.3852 65.6251L146.607 65.6251L146.607 49.0761Z" fill="var(--fill-0, #F27A97)"/>
<path id="Vector_10" d="M16.4472 147.228L16.4472 130.965L0.283616 130.965L0.283615 147.228L16.4472 147.228Z" fill="var(--fill-0, #F27A97)"/>
<path id="Vector_11" d="M32.6107 130.965L32.6107 114.701L16.4471 114.701L16.4471 130.965L32.6107 130.965Z" fill="var(--fill-0, #F27A97)"/>
<path id="Vector_12" d="M3.04321e-06 98.1522L32.6108 98.1522L32.6108 114.701L49.0579 114.701L49.0579 147.514L65.2215 147.514L65.2215 98.1522L65.2215 81.8886L3.75411e-06 81.8886L3.04321e-06 98.1522Z" fill="var(--fill-0, #F27A97)"/>
<path id="Vector_13" d="M65.2215 81.8889L81.3851 81.8889L81.3851 65.6253L65.2215 65.6253L65.2215 81.8889Z" fill="var(--fill-0, #F27A97)"/>
</g>
</svg>
