<?xml version="1.0" encoding="UTF-8"?>
<svg id="Layer_1" data-name="Layer 1" xmlns="http://www.w3.org/2000/svg" viewBox="0 0 37.83 37.83">
  <defs>
    <style>
      .cls-1 {
        fill: #e19826;
      }
    </style>
  </defs>
  <g>
    <rect class="cls-1" x="33.63" y="0" width="4.2" height="4.2"/>
    <rect class="cls-1" x="29.42" y="4.2" width="4.2" height="4.2"/>
    <polygon class="cls-1" points="37.83 12.61 29.42 12.61 29.42 8.41 25.22 8.41 25.22 0 21.02 0 21.02 12.61 21.02 16.81 37.83 16.81 37.83 12.61"/>
  </g>
  <g>
    <rect class="cls-1" y="33.63" width="4.2" height="4.2"/>
    <rect class="cls-1" x="4.2" y="29.42" width="4.2" height="4.2"/>
    <polygon class="cls-1" points="0 25.22 8.41 25.22 8.41 29.42 12.61 29.42 12.61 37.83 16.81 37.83 16.81 25.22 16.81 21.02 0 21.02 0 25.22"/>
  </g>
  <g>
    <rect class="cls-1" x="0" width="4.2" height="4.2"/>
    <rect class="cls-1" x="4.2" y="4.2" width="4.2" height="4.2"/>
    <polygon class="cls-1" points="12.61 0 12.61 8.41 8.41 8.41 8.41 12.61 0 12.61 0 16.81 12.61 16.81 16.81 16.81 16.81 0 12.61 0"/>
  </g>
  <g>
    <rect class="cls-1" x="33.63" y="33.63" width="4.2" height="4.2"/>
    <rect class="cls-1" x="29.42" y="29.42" width="4.2" height="4.2"/>
    <polygon class="cls-1" points="25.22 37.83 25.22 29.42 29.42 29.42 29.42 25.22 37.83 25.22 37.83 21.02 25.22 21.02 21.02 21.02 21.02 37.83 25.22 37.83"/>
  </g>
  <rect class="cls-1" x="16.81" y="16.81" width="4.2" height="4.2" transform="translate(37.83 0) rotate(90)"/>
</svg>